0
SECTION
2
HEADER
9
$INSUNITS
70
4
9
$ACADVER
1
AC1014
9
$HANDSEED
5
FFFF
0
ENDSEC
0
SECTION
2
TABLES
0
TABLE
2
VPORT
5
8
100
AcDbSymbolTable
0
ENDTAB
0
TABLE
2
LTYPE
5
5
100
AcDbSymbolTable
0
LTYPE
5
14
100
AcDbSymbolTableRecord
100
AcDbLinetypeTableRecord
2
BYBLOCK
70
0
0
LTYPE
5
15
100
AcDbSymbolTableRecord
100
AcDbLinetypeTableRecord
2
BYLAYER
70
0
0
ENDTAB
0
TABLE
2
LAYER
5
2
100
AcDbSymbolTable
70
2
0
LAYER
5
50
100
AcDbSymbolTableRecord
100
AcDbLayerTableRecord
2
0
70
0
6
CONTINUOUS
0
ENDTAB
0
TABLE
2
STYLE
5
3
100
AcDbSymbolTable
70
1
0
STYLE
5
11
100
AcDbSymbolTableRecord
100
AcDbTextStyleTableRecord
2
STANDARD
70
0
0
ENDTAB
0
TABLE
2
VIEW
5
6
100
AcDbSymbolTable
70
0
0
ENDTAB
0
TABLE
2
UCS
5
7
100
AcDbSymbolTable
70
0
0
ENDTAB
0
TABLE
2
APPID
5
9
100
AcDbSymbolTable
70
2
0
APPID
5
12
100
AcDbSymbolTableRecord
100
AcDbRegAppTableRecord
2
ACAD
70
0
0
ENDTAB
0
TABLE
2
DIMSTYLE
5
A
100
AcDbSymbolTable
70
1
0
ENDTAB
0
TABLE
2
BLOCK_RECORD
5
1
100
AcDbSymbolTable
70
1
0
BLOCK_RECORD
5
1F
100
AcDbSymbolTableRecord
100
AcDbBlockTableRecord
2
*MODEL_SPACE
0
BLOCK_RECORD
5
1B
100
AcDbSymbolTableRecord
100
AcDbBlockTableRecord
2
*PAPER_SPACE
0
ENDTAB
0
ENDSEC
0
SECTION
2
BLOCKS
0
BLOCK
5
20
100
AcDbEntity
100
AcDbBlockBegin
2
*MODEL_SPACE
0
ENDBLK
5
21
100
AcDbEntity
100
AcDbBlockEnd
0
BLOCK
5
1C
100
AcDbEntity
100
AcDbBlockBegin
2
*PAPER_SPACE
0
ENDBLK
5
1D
100
AcDbEntity
100
AcDbBlockEnd
0
ENDSEC
0
SECTION
2
ENTITIES
0
LWPOLYLINE
5
100
100
AcDbEntity
8
0
100
AcDbPolyline
90
14
70
1
43
0.0
10
148.99324999999999
20
-93.224999999999994
10
148.99324999999999
20
-92.724999999999994
10
119.70625
20
-92.725000000000009
42
-0.41421356237309503
10
119.20625000000001
20
-92.224999999999994
10
119.20625000000001
20
-79.224999999999994
42
-0.41421356237309503
10
119.70625
20
-78.724999999999994
10
149.375
20
-78.724999999999994
42
-0.41421356237309503
10
149.875
20
-79.224999999999994
10
149.875
20
-79.724999999999994
10
155.24324999999999
20
-79.72499999999998
42
-0.41421356237309503
10
155.74324999999999
20
-80.224999999999994
10
155.74324999999999
20
-93.224999999999994
42
-0.41421356237309503
10
155.24324999999999
20
-93.725000000000009
10
149.49324999999999
20
-93.725000000000009
42
-0.41421356237309503
0
LWPOLYLINE
5
101
100
AcDbEntity
8
0
100
AcDbPolyline
90
8
70
1
43
0.0
10
170.80625000000001
20
-92.724999999999994
10
157.80625000000001
20
-92.725000000000009
42
-0.41421356237309503
10
157.30625000000001
20
-92.224999999999994
10
157.30625000000001
20
-79.224999999999994
42
-0.41421356237309503
10
157.80625000000001
20
-78.724999999999994
10
170.80625000000001
20
-78.724999999999994
42
-0.41421356237309503
10
171.30625000000003
20
-79.224999999999994
10
171.30625000000003
20
-92.224999999999994
42
-0.41421356237309503
0
ARC
5
102
100
AcDbEntity
8
0
100
AcDbCircle
10
88.599999999999994
20
-93.224999999999994
30
0
40
0.50000000000000711
210
0
220
0
230
1
100
AcDbArc
50
-90
51
0
0
ARC
5
103
100
AcDbEntity
8
0
100
AcDbCircle
10
78.055750000000018
20
-93.224999999999994
30
0
40
0.49999999999999822
210
0
220
0
230
1
100
AcDbArc
50
180
51
270
0
LINE
5
104
100
AcDbEntity
8
0
100
AcDbLine
10
173.36925000000002
20
-79.724999999999994
30
0
11
179.11924999999999
21
-79.724999999999994
31
0
0
ARC
5
105
100
AcDbEntity
8
0
100
AcDbCircle
10
78.055750000000018
20
-80.224999999999994
30
0
40
0.49999999999999822
210
0
220
-0
230
1
100
AcDbArc
50
90
51
180
0
LINE
5
106
100
AcDbEntity
8
0
100
AcDbLine
10
196.65000000000003
20
-92.724999999999994
30
0
11
196.65000000000003
21
-93.224999999999994
31
0
0
ARC
5
107
100
AcDbEntity
8
0
100
AcDbCircle
10
202.90000000000003
20
-93.224999999999994
30
0
40
0.50000000000000711
210
0
220
0
230
1
100
AcDbArc
50
-90
51
0
0
LINE
5
108
100
AcDbEntity
8
0
100
AcDbLine
10
195.40625000000003
20
-79.224999999999994
30
0
11
195.40625000000003
21
-92.224999999999994
31
0
0
LINE
5
109
100
AcDbEntity
8
0
100
AcDbLine
10
197.15000000000003
20
-93.725000000000009
30
0
11
202.90000000000003
21
-93.725000000000009
31
0
0
LINE
5
110
100
AcDbEntity
8
0
100
AcDbLine
10
82.849999999999994
20
-93.725000000000009
30
0
11
88.599999999999994
21
-93.725000000000009
31
0
0
LINE
5
111
100
AcDbEntity
8
0
100
AcDbLine
10
195.90625000000003
20
-78.724999999999994
30
0
11
208.90625
21
-78.724999999999994
31
0
0
LINE
5
112
100
AcDbEntity
8
0
100
AcDbLine
10
172.86924999999999
20
-80.224999999999994
30
0
11
172.86924999999999
21
-93.224999999999994
31
0
0
LINE
5
113
100
AcDbEntity
8
0
100
AcDbLine
10
173.36925000000002
20
-93.725000000000009
30
0
11
179.11924999999999
21
-93.725000000000009
31
0
0
ARC
5
114
100
AcDbEntity
8
0
100
AcDbCircle
10
197.15000000000003
20
-93.224999999999994
30
0
40
0.50000000000000711
210
0
220
0
230
1
100
AcDbArc
50
180
51
270
0
LINE
5
115
100
AcDbEntity
8
0
100
AcDbLine
10
203.40000000000003
20
-92.725000000000009
30
0
11
203.40000000000003
21
-93.224999999999994
31
0
0
LINE
5
116
100
AcDbEntity
8
0
100
AcDbLine
10
82.849999999999994
20
-79.724999999999994
30
0
11
85.868750000000006
21
-79.724999999999994
31
0
0
ARC
5
117
100
AcDbEntity
8
0
100
AcDbCircle
10
195.90625000000003
20
-92.224999999999994
30
0
40
0.50000000000000711
210
0
220
0
230
1
100
AcDbArc
50
180
51
270
0
LINE
5
118
100
AcDbEntity
8
0
100
AcDbLine
10
89.099999999999994
20
-92.724999999999994
30
0
11
89.099999999999994
21
-93.224999999999994
31
0
0
ARC
5
119
100
AcDbEntity
8
0
100
AcDbCircle
10
195.90625000000003
20
-79.224999999999994
30
0
40
0.49999999999999822
210
0
220
-0
230
1
100
AcDbArc
50
90
51
180
0
LINE
5
120
100
AcDbEntity
8
0
100
AcDbLine
10
219.71875
20
-92.724999999999994
30
0
11
232.71875
21
-92.724999999999994
31
0
0
LINE
5
121
100
AcDbEntity
8
0
100
AcDbLine
10
217.33750000000001
20
-78.724999999999994
30
0
11
230.33750000000001
21
-78.724999999999994
31
0
0
LINE
5
122
100
AcDbEntity
8
0
100
AcDbLine
10
241.15000000000003
20
-78.724999999999994
30
0
11
254.15000000000003
21
-78.724999999999994
31
0
0
LINE
5
123
100
AcDbEntity
8
0
100
AcDbLine
10
267.34375
20
-78.724999999999994
30
0
11
280.34375
21
-78.724999999999994
31
0
0
LINE
5
124
100
AcDbEntity
8
0
100
AcDbLine
10
264.96249999999998
20
-92.724999999999994
30
0
11
277.96249999999998
21
-92.724999999999994
31
0
0
LINE
5
125
100
AcDbEntity
8
0
100
AcDbLine
10
0
20
-95.25
30
0
11
285.75
21
-95.25
31
0
0
LINE
5
126
100
AcDbEntity
8
0
100
AcDbLine
10
241.15000000000003
20
-92.725000000000009
30
0
11
254.15000000000003
21
-92.725000000000009
31
0
0
ARC
5
127
100
AcDbEntity
8
0
100
AcDbCircle
10
280.34375
20
-79.224999999999994
30
0
40
0.50000000000000711
210
0
220
0
230
1
100
AcDbArc
50
0
51
90
0
LINE
5
128
100
AcDbEntity
8
0
100
AcDbLine
10
264.96249999999998
20
-78.724999999999994
30
0
11
277.96249999999998
21
-78.724999999999994
31
0
0
LINE
5
129
100
AcDbEntity
8
0
100
AcDbLine
10
243.53125000000003
20
-78.724999999999994
30
0
11
256.53125
21
-78.724999999999994
31
0
0
LINE
5
130
100
AcDbEntity
8
0
100
AcDbLine
10
217.33750000000001
20
-92.724999999999994
30
0
11
230.33750000000001
21
-92.725000000000009
31
0
0
LINE
5
131
100
AcDbEntity
8
0
100
AcDbLine
10
219.71875
20
-78.724999999999994
30
0
11
232.71875
21
-78.724999999999994
31
0
0
LINE
5
132
100
AcDbEntity
8
0
100
AcDbLine
10
243.53125000000003
20
-92.725000000000009
30
0
11
256.53125
21
-92.724999999999994
31
0
0
LINE
5
133
100
AcDbEntity
8
0
100
AcDbLine
10
267.34375
20
-92.724999999999994
30
0
11
280.34375
21
-92.724999999999994
31
0
0
LINE
5
134
100
AcDbEntity
8
0
100
AcDbLine
10
0
20
0
30
0
11
285.75
21
0
31
0
0
ARC
5
135
100
AcDbEntity
8
0
100
AcDbCircle
10
280.34375
20
-92.224999999999994
30
0
40
0.50000000000000711
210
0
220
0
230
1
100
AcDbArc
50
-90
51
0
0
LINE
5
136
100
AcDbEntity
8
0
100
AcDbLine
10
280.84375
20
-79.224999999999994
30
0
11
280.84375
21
-92.224999999999994
31
0
0
LWPOLYLINE
5
137
100
AcDbEntity
8
0
100
AcDbPolyline
90
8
70
1
43
0.0
10
54.125000000000007
20
-2.5250000000000017
42
-0.41421356237309503
10
54.625
20
-3.0249999999999999
10
54.625
20
-16.024999999999999
42
-0.41421356237309503
10
54.125000000000007
20
-16.525000000000002
10
41.125
20
-16.524999999999999
42
-0.41421356237309503
10
40.625
20
-16.024999999999999
10
40.625
20
-3.0249999999999999
42
-0.41421356237309503
10
41.125
20
-2.5249999999999999
0
LWPOLYLINE
5
138
100
AcDbEntity
8
0
100
AcDbPolyline
90
8
70
1
43
0.0
10
35.075000000000003
20
-2.5249999999999999
10
22.074999999999999
20
-2.5249999999999999
42
0.41421356237309503
10
21.575000000000003
20
-3.0249999999999999
10
21.575000000000003
20
-16.024999999999999
42
0.41421356237309503
10
22.074999999999999
20
-16.524999999999999
10
35.075000000000003
20
-16.525000000000002
42
0.41421356237309503
10
35.575000000000003
20
-16.024999999999999
10
35.575000000000003
20
-3.0249999999999999
42
0.41421356237309503
0
LWPOLYLINE
5
139
100
AcDbEntity
8
0
100
AcDbPolyline
90
8
70
1
43
0.0
10
92.725000000000009
20
-16.024999999999999
42
-0.41421356237309503
10
92.224999999999994
20
-16.525000000000002
10
79.224999999999994
20
-16.524999999999999
42
-0.41421356237309503
10
78.724999999999994
20
-16.024999999999999
10
78.724999999999994
20
-3.0249999999999999
42
-0.41421356237309503
10
79.224999999999994
20
-2.5249999999999999
10
92.224999999999994
20
-2.5249999999999928
42
-0.41421356237309503
10
92.725000000000009
20
-3.0249999999999999
0
LWPOLYLINE
5
140
100
AcDbEntity
8
0
100
AcDbPolyline
90
8
70
1
43
0.0
10
16.525000000000002
20
-16.024999999999999
42
-0.41421356237309503
10
16.024999999999999
20
-16.525000000000002
10
3.0249999999999999
20
-16.525000000000002
42
-0.41421356237309503
10
2.5249999999999999
20
-16.024999999999999
10
2.5249999999999999
20
-3.0249999999999999
42
-0.41421356237309503
10
3.0249999999999999
20
-2.5249999999999999
10
16.024999999999999
20
-2.5249999999999995
42
-0.41421356237309503
10
16.525000000000002
20
-3.0249999999999999
0
LWPOLYLINE
5
141
100
AcDbEntity
8
0
100
AcDbPolyline
90
8
70
1
43
0.0
10
73.174999999999997
20
-16.524999999999999
10
60.174999999999997
20
-16.524999999999999
42
-0.41421356237309503
10
59.675000000000004
20
-16.024999999999999
10
59.675000000000004
20
-3.0249999999999999
42
-0.41421356237309503
10
60.174999999999997
20
-2.5249999999999999
10
73.174999999999997
20
-2.5250000000000017
42
-0.41421356237309503
10
73.674999999999997
20
-3.0249999999999999
10
73.674999999999997
20
-16.024999999999999
42
-0.41421356237309503
0
LWPOLYLINE
5
142
100
AcDbEntity
8
0
100
AcDbPolyline
90
8
70
1
43
0.0
10
111.27500000000001
20
-16.524999999999999
10
98.275000000000006
20
-16.525000000000006
42
-0.41421356237309503
10
97.775000000000006
20
-16.024999999999999
10
97.775000000000006
20
-3.0249999999999999
42
-0.41421356237309503
10
98.275000000000006
20
-2.5249999999999999
10
111.27500000000001
20
-2.5249999999999928
42
-0.41421356237309503
10
111.77500000000002
20
-3.0249999999999999
10
111.77500000000002
20
-16.024999999999999
42
-0.41421356237309503
0
LWPOLYLINE
5
143
100
AcDbEntity
8
0
100
AcDbPolyline
90
8
70
1
43
0.0
10
130.32499999999999
20
-2.5249999999999999
10
117.32500000000002
20
-2.5249999999999999
42
0.41421356237309503
10
116.82500000000002
20
-3.0249999999999999
10
116.82500000000002
20
-16.024999999999999
42
0.41421356237309503
10
117.32500000000002
20
-16.524999999999999
10
130.32499999999999
20
-16.525000000000002
42
0.41421356237309503
10
130.82499999999999
20
-16.024999999999999
10
130.82499999999999
20
-3.0249999999999999
42
0.41421356237309503
0
LWPOLYLINE
5
144
100
AcDbEntity
8
0
100
AcDbPolyline
90
8
70
1
43
0.0
10
149.375
20
-2.5249999999999999
10
136.375
20
-2.5249999999999999
42
0.41421356237309503
10
135.875
20
-3.0249999999999999
10
135.875
20
-16.024999999999999
42
0.41421356237309503
10
136.375
20
-16.524999999999999
10
149.375
20
-16.525000000000002
42
0.41421356237309503
10
149.875
20
-16.024999999999999
10
149.875
20
-3.0249999999999999
42
0.41421356237309503
0
LWPOLYLINE
5
145
100
AcDbEntity
8
0
100
AcDbPolyline
90
20
70
1
43
0.0
10
281.51299999999998
20
-17.524999999999999
10
275.76299999999998
20
-17.525000000000006
42
-0.41421356237309503
10
275.26299999999998
20
-17.024999999999999
10
275.26299999999998
20
-16.524999999999999
10
258.137
20
-16.525000000000002
10
258.137
20
-17.024999999999999
42
-0.41421356237309503
10
257.637
20
-17.524999999999999
10
251.887
20
-17.525000000000006
42
-0.41421356237309503
10
251.387
20
-17.024999999999999
10
251.387
20
-16.525000000000002
10
250.67500000000001
20
-16.525000000000006
42
-0.41421356237309503
10
250.17500000000001
20
-16.024999999999999
10
250.17500000000001
20
-3.0249999999999999
42
-0.41421356237309503
10
250.67500000000001
20
-2.5249999999999999
10
282.72500000000002
20
-2.5249999999999928
42
-0.41421356237309503
10
283.22500000000002
20
-3.0249999999999999
10
283.22500000000002
20
-16.024999999999999
42
-0.41421356237309503
10
282.72500000000002
20
-16.524999999999999
10
282.01299999999998
20
-16.524999999999999
10
282.01299999999998
20
-17.024999999999999
42
-0.41421356237309503
0
LWPOLYLINE
5
146
100
AcDbEntity
8
0
100
AcDbPolyline
90
8
70
1
43
0.0
10
168.42500000000001
20
-2.5249999999999928
42
-0.41421356237309503
10
168.92500000000001
20
-3.0249999999999999
10
168.92500000000001
20
-16.024999999999999
42
-0.41421356237309503
10
168.42500000000001
20
-16.525000000000002
10
155.42500000000001
20
-16.525000000000006
42
-0.41421356237309503
10
154.92500000000001
20
-16.024999999999999
10
154.92500000000001
20
-3.0249999999999999
42
-0.41421356237309503
10
155.42500000000001
20
-2.5249999999999999
0
LWPOLYLINE
5
147
100
AcDbEntity
8
0
100
AcDbPolyline
90
8
70
1
43
0.0
10
207.02500000000003
20
-16.024999999999999
42
-0.41421356237309503
10
206.52500000000003
20
-16.525000000000002
10
193.52500000000003
20
-16.525000000000006
42
-0.41421356237309503
10
193.02500000000003
20
-16.024999999999999
10
193.02500000000003
20
-3.0249999999999999
42
-0.41421356237309503
10
193.52500000000003
20
-2.5249999999999999
10
206.52500000000003
20
-2.5249999999999928
42
-0.41421356237309503
10
207.02500000000003
20
-3.0249999999999999
0
LWPOLYLINE
5
148
100
AcDbEntity
8
0
100
AcDbPolyline
90
8
70
1
43
0.0
10
225.57500000000002
20
-2.5249999999999928
42
-0.41421356237309503
10
226.07500000000002
20
-3.0249999999999999
10
226.07500000000002
20
-16.024999999999999
42
-0.41421356237309503
10
225.57500000000002
20
-16.524999999999999
10
212.57499999999999
20
-16.525000000000006
42
-0.41421356237309503
10
212.07499999999999
20
-16.024999999999999
10
212.07499999999999
20
-3.0249999999999999
42
-0.41421356237309503
10
212.57499999999999
20
-2.5249999999999999
0
LWPOLYLINE
5
149
100
AcDbEntity
8
0
100
AcDbPolyline
90
8
70
1
43
0.0
10
244.62500000000003
20
-16.524999999999999
10
231.625
20
-16.525000000000006
42
-0.41421356237309503
10
231.125
20
-16.024999999999999
10
231.125
20
-3.0249999999999999
42
-0.41421356237309503
10
231.625
20
-2.5249999999999999
10
244.62500000000003
20
-2.5249999999999928
42
-0.41421356237309503
10
245.12500000000003
20
-3.0249999999999999
10
245.12500000000003
20
-16.024999999999999
42
-0.41421356237309503
0
LWPOLYLINE
5
150
100
AcDbEntity
8
0
100
AcDbPolyline
90
8
70
1
43
0.0
10
187.47499999999999
20
-2.5249999999999999
10
174.47500000000002
20
-2.5249999999999999
42
0.41421356237309503
10
173.97500000000002
20
-3.0249999999999999
10
173.97500000000002
20
-16.024999999999999
42
0.41421356237309503
10
174.47500000000002
20
-16.524999999999999
10
187.47499999999999
20
-16.525000000000002
42
0.41421356237309503
10
187.97499999999999
20
-16.024999999999999
10
187.97499999999999
20
-3.0249999999999999
42
0.41421356237309503
0
LWPOLYLINE
5
151
100
AcDbEntity
8
0
100
AcDbPolyline
90
8
70
1
43
0.0
10
83.200000000000003
20
-35.075000000000003
10
83.200000000000017
20
-22.074999999999999
42
0.41421356237309503
10
82.700000000000017
20
-21.575000000000003
10
69.700000000000003
20
-21.575000000000003
42
0.41421356237309503
10
69.200000000000003
20
-22.074999999999999
10
69.200000000000003
20
-35.075000000000003
42
0.41421356237309503
10
69.700000000000003
20
-35.575000000000003
10
82.700000000000017
20
-35.575000000000003
42
0.41421356237309503
0
LWPOLYLINE
5
152
100
AcDbEntity
8
0
100
AcDbPolyline
90
8
70
1
43
0.0
10
64.150000000000006
20
-35.075000000000003
10
64.150000000000006
20
-22.074999999999999
42
0.41421356237309503
10
63.650000000000006
20
-21.575000000000003
10
50.650000000000006
20
-21.575000000000003
42
0.41421356237309503
10
50.150000000000006
20
-22.074999999999999
10
50.150000000000006
20
-35.075000000000003
42
0.41421356237309503
10
50.650000000000006
20
-35.575000000000003
10
63.650000000000006
20
-35.575000000000003
42
0.41421356237309503
0
LWPOLYLINE
5
153
100
AcDbEntity
8
0
100
AcDbPolyline
90
8
70
1
43
0.0
10
31.600000000000001
20
-35.575000000000003
42
-0.41421356237309503
10
31.100000000000001
20
-35.075000000000003
10
31.100000000000001
20
-22.074999999999999
42
-0.41421356237309503
10
31.600000000000001
20
-21.575000000000003
10
44.600000000000001
20
-21.575000000000003
42
-0.41421356237309503
10
45.099999999999994
20
-22.074999999999999
10
45.099999999999994
20
-35.075000000000003
42
-0.41421356237309503
10
44.600000000000001
20
-35.575000000000003
0
LWPOLYLINE
5
154
100
AcDbEntity
8
0
100
AcDbPolyline
90
8
70
1
43
0.0
10
20.787500000000001
20
-21.575000000000003
10
7.7875000000000005
20
-21.575000000000003
42
0.41421356237309503
10
7.2874999999999996
20
-22.074999999999999
10
7.2874999999999996
20
-35.075000000000003
42
0.41421356237309503
10
7.7875000000000005
20
-35.575000000000003
10
20.787500000000001
20
-35.575000000000003
42
0.41421356237309503
10
21.287500000000001
20
-35.075000000000003
10
21.287500000000001
20
-22.074999999999999
42
0.41421356237309503
0
LWPOLYLINE
5
155
100
AcDbEntity
8
0
100
AcDbPolyline
90
8
70
1
43
0.0
10
159.40000000000001
20
-35.075000000000003
42
-0.41421356237309503
10
158.90000000000001
20
-35.575000000000003
10
145.90000000000001
20
-35.57500000000001
42
-0.41421356237309503
10
145.40000000000001
20
-35.075000000000003
10
145.40000000000003
20
-22.074999999999999
42
-0.41421356237309503
10
145.90000000000001
20
-21.575000000000003
10
158.90000000000001
20
-21.574999999999992
42
-0.41421356237309503
10
159.40000000000001
20
-22.074999999999999
0
LWPOLYLINE
5
156
100
AcDbEntity
8
0
100
AcDbPolyline
90
8
70
1
43
0.0
10
177.94999999999999
20
-21.575000000000003
10
164.95000000000002
20
-21.575000000000003
42
0.41421356237309503
10
164.44999999999999
20
-22.074999999999999
10
164.44999999999999
20
-35.075000000000003
42
0.41421356237309503
10
164.95000000000002
20
-35.575000000000003
10
177.94999999999999
20
-35.575000000000003
42
0.41421356237309503
10
178.44999999999999
20
-35.075000000000003
10
178.44999999999999
20
-22.074999999999999
42
0.41421356237309503
0
LWPOLYLINE
5
157
100
AcDbEntity
8
0
100
AcDbPolyline
90
8
70
1
43
0.0
10
183.5
20
-35.075000000000003
10
183.5
20
-22.074999999999999
42
-0.41421356237309503
10
184.00000000000003
20
-21.575000000000003
10
197.00000000000003
20
-21.574999999999992
42
-0.41421356237309503
10
197.5
20
-22.074999999999999
10
197.50000000000003
20
-35.075000000000003
42
-0.41421356237309503
10
197.00000000000003
20
-35.575000000000003
10
184.00000000000003
20
-35.57500000000001
42
-0.41421356237309503
0
LWPOLYLINE
5
158
100
AcDbEntity
8
0
100
AcDbPolyline
90
8
70
1
43
0.0
10
101.75
20
-35.575000000000003
10
88.75
20
-35.57500000000001
42
-0.41421356237309503
10
88.250000000000014
20
-35.075000000000003
10
88.25
20
-22.074999999999999
42
-0.41421356237309503
10
88.75
20
-21.575000000000003
10
101.75
20
-21.574999999999992
42
-0.41421356237309503
10
102.25000000000001
20
-22.074999999999999
10
102.25000000000001
20
-35.075000000000003
42
-0.41421356237309503
0
LWPOLYLINE
5
159
100
AcDbEntity
8
0
100
AcDbPolyline
90
8
70
1
43
0.0
10
107.30000000000001
20
-35.075000000000003
10
107.30000000000001
20
-22.074999999999999
42
-0.41421356237309503
10
107.80000000000001
20
-21.575000000000003
10
120.8
20
-21.574999999999992
42
-0.41421356237309503
10
121.30000000000001
20
-22.074999999999999
10
121.29999999999998
20
-35.075000000000003
42
-0.41421356237309503
10
120.8
20
-35.575000000000003
10
107.80000000000001
20
-35.57500000000001
42
-0.41421356237309503
0
LWPOLYLINE
5
160
100
AcDbEntity
8
0
100
AcDbPolyline
90
8
70
1
43
0.0
10
126.34999999999999
20
-35.075000000000003
10
126.35000000000002
20
-22.074999999999999
42
-0.41421356237309503
10
126.85000000000001
20
-21.575000000000003
10
139.84999999999999
20
-21.574999999999992
42
-0.41421356237309503
10
140.34999999999999
20
-22.074999999999999
10
140.34999999999999
20
-35.075000000000003
42
-0.41421356237309503
10
139.84999999999999
20
-35.575000000000003
10
126.85000000000001
20
-35.57500000000001
42
-0.41421356237309503
0
LWPOLYLINE
5
161
100
AcDbEntity
8
0
100
AcDbPolyline
90
8
70
1
43
0.0
10
216.05000000000004
20
-21.575000000000003
10
203.05000000000004
20
-21.575000000000003
42
0.41421356237309503
10
202.55000000000001
20
-22.074999999999999
10
202.55000000000001
20
-35.075000000000003
42
0.41421356237309503
10
203.05000000000004
20
-35.575000000000003
10
216.05000000000004
20
-35.575000000000003
42
0.41421356237309503
10
216.55000000000001
20
-35.075000000000003
10
216.55000000000004
20
-22.074999999999999
42
0.41421356237309503
0
ARC
5
162
100
AcDbEntity
8
0
100
AcDbCircle
10
279.34375
20
-23.286999999999999
30
0
40
0.50000000000000711
210
0
220
0
230
1
100
AcDbArc
50
0
51
90
0
LWPOLYLINE
5
163
100
AcDbEntity
8
0
100
AcDbPolyline
90
8
70
1
43
0.0
10
235.10000000000002
20
-21.575000000000003
10
222.10000000000002
20
-21.575000000000003
42
0.41421356237309503
10
221.59999999999999
20
-22.074999999999999
10
221.59999999999999
20
-35.075000000000003
42
0.41421356237309503
10
222.10000000000002
20
-35.575000000000003
10
235.10000000000002
20
-35.575000000000003
42
0.41421356237309503
10
235.60000000000002
20
-35.075000000000003
10
235.60000000000002
20
-22.074999999999999
42
0.41421356237309503
0
ARC
5
164
100
AcDbEntity
8
0
100
AcDbCircle
10
264.96249999999998
20
-35.075000000000003
30
0
40
0.50000000000000711
210
0
220
0
230
1
100
AcDbArc
50
180
51
270
0
LWPOLYLINE
5
165
100
AcDbEntity
8
0
100
AcDbPolyline
90
8
70
1
43
0.0
10
254.65000000000003
20
-35.075000000000003
10
254.65000000000003
20
-22.074999999999999
42
0.41421356237309503
10
254.15000000000003
20
-21.575000000000003
10
241.15000000000003
20
-21.575000000000003
42
0.41421356237309503
10
240.65000000000001
20
-22.074999999999999
10
240.65000000000001
20
-35.075000000000003
42
0.41421356237309503
10
241.15000000000003
20
-35.575000000000003
10
254.15000000000003
20
-35.575000000000003
42
0.41421356237309503
0
LINE
5
166
100
AcDbEntity
8
0
100
AcDbLine
10
266.84375
20
-35.575000000000003
30
0
11
266.84375
21
-40.625
31
0
0
ARC
5
167
100
AcDbEntity
8
0
100
AcDbCircle
10
264.96249999999998
20
-22.074999999999999
30
0
40
0.49999999999999822
210
0
220
-0
230
1
100
AcDbArc
50
90
51
180
0
LWPOLYLINE
5
168
100
AcDbEntity
8
0
100
AcDbPolyline
90
8
70
1
43
0.0
10
87.962500000000006
20
-54.125000000000007
42
-0.41421356237309503
10
87.46250000000002
20
-54.625
10
74.462500000000006
20
-54.625
42
-0.41421356237309503
10
73.962500000000006
20
-54.125000000000007
10
73.962500000000006
20
-41.125
42
-0.41421356237309503
10
74.462500000000006
20
-40.625
10
87.46250000000002
20
-40.624999999999993
42
-0.41421356237309503
10
87.962500000000006
20
-41.125
0
LWPOLYLINE
5
169
100
AcDbEntity
8
0
100
AcDbPolyline
90
8
70
1
43
0.0
10
126.06250000000001
20
-54.125000000000007
10
126.06250000000001
20
-41.125
42
0.41421356237309503
10
125.5625
20
-40.625
10
112.56250000000001
20
-40.625
42
0.41421356237309503
10
112.0625
20
-41.125
10
112.0625
20
-54.125000000000007
42
0.41421356237309503
10
112.56250000000001
20
-54.625
10
125.5625
20
-54.625
42
0.41421356237309503
0
LWPOLYLINE
5
170
100
AcDbEntity
8
0
100
AcDbPolyline
90
8
70
1
43
0.0
10
68.412499999999994
20
-54.625
10
55.412500000000009
20
-54.625
42
-0.41421356237309503
10
54.912500000000009
20
-54.125000000000007
10
54.912500000000009
20
-41.125
42
-0.41421356237309503
10
55.412500000000009
20
-40.625
10
68.412499999999994
20
-40.625
42
-0.41421356237309503
10
68.912499999999994
20
-41.125
10
68.912499999999994
20
-54.125000000000007
42
-0.41421356237309503
0
LWPOLYLINE
5
171
100
AcDbEntity
8
0
100
AcDbPolyline
90
9
70
1
43
0.0
10
4.5687500000000005
20
-54.625
42
-0.41421356237309503
10
4.0687500000000014
20
-54.125000000000007
10
4.0687500000000023
20
-41.125
42
-0.41421356237309503
10
4.5687500000000014
20
-40.625
10
23.168749999999999
20
-40.625
42
-0.41421356237309503
10
23.668749999999999
20
-41.125
10
23.668749999999999
20
-54.125000000000007
42
-0.41421356237309503
10
23.168749999999999
20
-54.625
10
5.5687500000000014
20
-54.625
0
LWPOLYLINE
5
172
100
AcDbEntity
8
0
100
AcDbPolyline
90
8
70
1
43
0.0
10
29.768750000000001
20
-40.625
10
28.768750000000004
20
-40.625
42
0.41421356237309503
10
28.268750000000004
20
-41.125
10
28.268750000000008
20
-54.125000000000007
42
0.41421356237309503
10
28.768750000000004
20
-54.625
10
29.768750000000001
20
-54.625
42
0.41421356237309503
10
30.268750000000004
20
-54.125000000000007
10
30.268750000000004
20
-41.125
42
0.41421356237309503
0
LWPOLYLINE
5
173
100
AcDbEntity
8
0
100
AcDbPolyline
90
8
70
1
43
0.0
10
49.362500000000004
20
-40.625
10
36.362499999999997
20
-40.625
42
0.41421356237309503
10
35.862499999999997
20
-41.125
10
35.862500000000004
20
-54.125000000000007
42
0.41421356237309503
10
36.362499999999997
20
-54.625
10
49.362500000000004
20
-54.625
42
0.41421356237309503
10
49.862499999999997
20
-54.125000000000007
10
49.862499999999997
20
-41.125
42
0.41421356237309503
0
LWPOLYLINE
5
174
100
AcDbEntity
8
0
100
AcDbPolyline
90
8
70
1
43
0.0
10
106.51250000000002
20
-40.625
10
93.512500000000003
20
-40.625
42
0.41421356237309503
10
93.012500000000017
20
-41.125
10
93.012499999999989
20
-54.125000000000007
42
0.41421356237309503
10
93.512500000000003
20
-54.625
10
106.51250000000002
20
-54.625
42
0.41421356237309503
10
107.01250000000002
20
-54.125000000000007
10
107.01250000000002
20
-41.125
42
0.41421356237309503
0
LINE
5
175
100
AcDbEntity
8
0
100
AcDbLine
10
280.34375
20
-31.100000000000001
30
0
11
279.8437391377563
21
-31.099999304845728
31
0
0
ARC
5
176
100
AcDbEntity
8
0
100
AcDbCircle
10
277.96249999999998
20
-22.074999999999999
30
0
40
0.50000000000000711
210
0
220
0
230
1
100
AcDbArc
50
0
51
90
0
ARC
5
177
100
AcDbEntity
8
0
100
AcDbCircle
10
280.34375
20
-44.600000000000001
30
0
40
0.49999999999999822
210
0
220
0
230
1
100
AcDbArc
50
-90
51
0
0
LINE
5
178
100
AcDbEntity
8
0
100
AcDbLine
10
272.88175000000001
20
-53.412999999999997
30
0
11
271.31875000000002
21
-53.412999999999997
31
0
0
LINE
5
179
100
AcDbEntity
8
0
100
AcDbLine
10
264.96249999999998
20
-35.575000000000003
30
0
11
266.84375
21
-35.575000000000003
31
0
0
LINE
5
180
100
AcDbEntity
8
0
100
AcDbLine
10
279.84375000000006
20
-23.286999999999999
30
0
11
279.84374200589957
21
-29.036999999986893
31
0
0
LINE
5
181
100
AcDbEntity
8
0
100
AcDbLine
10
264.96249999999998
20
-21.575000000000003
30
0
11
277.96249999999998
21
-21.575000000000003
31
0
0
ARC
5
182
100
AcDbEntity
8
0
100
AcDbCircle
10
279.34375
20
-47.162999999999997
30
0
40
0.50000000000000711
210
0
220
0
230
1
100
AcDbArc
50
0
51
54.830307076143512
0
LINE
5
183
100
AcDbEntity
8
0
100
AcDbLine
10
264.46249999999998
20
-22.074999999999999
30
0
11
264.46249999999998
21
-35.075000000000003
31
0
0
LINE
5
184
100
AcDbEntity
8
0
100
AcDbLine
10
280.84375
20
-31.600000000000001
30
0
11
280.84375
21
-44.600000000000001
31
0
0
ARC
5
185
100
AcDbEntity
8
0
100
AcDbCircle
10
280.34375
20
-31.600000000000001
30
0
40
0.50000000000000711
210
0
220
0
230
1
100
AcDbArc
50
0
51
90
0
LINE
5
186
100
AcDbEntity
8
0
100
AcDbLine
10
279.84375000000006
20
-47.162999999999997
30
0
11
279.84375
21
-52.912999999999997
31
0
0
ARC
5
187
100
AcDbEntity
8
0
100
AcDbCircle
10
279.34375
20
-52.912999999999997
30
0
40
0.49999999999999678
210
0
220
0
230
1
100
AcDbArc
50
-54.830307076142596
51
0
0
LINE
5
188
100
AcDbEntity
8
0
100
AcDbLine
10
279.34375
20
-22.787000000000003
30
0
11
278.46249999999998
21
-22.787000000000003
31
0
0
LWPOLYLINE
5
189
100
AcDbEntity
8
0
100
AcDbPolyline
90
8
70
1
43
0.0
10
183.21250000000003
20
-54.125000000000007
42
-0.41421356237309503
10
182.71250000000003
20
-54.625
10
169.71250000000001
20
-54.625000000000014
42
-0.41421356237309503
10
169.21250000000001
20
-54.125000000000007
10
169.21250000000001
20
-41.125
42
-0.41421356237309503
10
169.71250000000001
20
-40.625
10
182.71250000000003
20
-40.624999999999993
42
-0.41421356237309503
10
183.21250000000003
20
-41.125
0
LINE
5
190
100
AcDbEntity
8
0
100
AcDbLine
10
257.81875000000002
20
-40.625
30
0
11
266.84375
21
-40.625
31
0
0
LWPOLYLINE
5
191
100
AcDbEntity
8
0
100
AcDbPolyline
90
8
70
1
43
0.0
10
220.8125
20
-54.625
10
207.8125
20
-54.625000000000014
42
-0.41421356237309503
10
207.31250000000003
20
-54.125000000000007
10
207.3125
20
-41.125
42
-0.41421356237309503
10
207.8125
20
-40.625
10
220.8125
20
-40.624999999999993
42
-0.41421356237309503
10
221.3125
20
-41.125
10
221.3125
20
-54.125000000000007
42
-0.41421356237309503
0
LWPOLYLINE
5
192
100
AcDbEntity
8
0
100
AcDbPolyline
90
8
70
1
43
0.0
10
144.61250000000001
20
-40.625
10
131.61250000000001
20
-40.625
42
0.41421356237309503
10
131.11250000000001
20
-41.125
10
131.11250000000001
20
-54.125000000000007
42
0.41421356237309503
10
131.61250000000001
20
-54.625
10
144.61250000000001
20
-54.625
42
0.41421356237309503
10
145.11250000000001
20
-54.125000000000007
10
145.11250000000001
20
-41.125
42
0.41421356237309503
0
LWPOLYLINE
5
193
100
AcDbEntity
8
0
100
AcDbPolyline
90
8
70
1
43
0.0
10
164.16250000000002
20
-54.125000000000007
10
164.16250000000002
20
-41.125
42
0.41421356237309503
10
163.66250000000002
20
-40.625
10
150.66249999999999
20
-40.625
42
0.41421356237309503
10
150.16249999999999
20
-41.125
10
150.16249999999999
20
-54.125000000000007
42
0.41421356237309503
10
150.66249999999999
20
-54.625
10
163.66250000000002
20
-54.625
42
0.41421356237309503
0
LWPOLYLINE
5
194
100
AcDbEntity
8
0
100
AcDbPolyline
90
8
70
1
43
0.0
10
201.76249999999999
20
-40.624999999999993
42
-0.41421356237309503
10
202.26249999999999
20
-41.125
10
202.26249999999999
20
-54.125000000000007
42
-0.41421356237309503
10
201.76249999999999
20
-54.625
10
188.76249999999999
20
-54.625000000000014
42
-0.41421356237309503
10
188.26249999999999
20
-54.125000000000007
10
188.26249999999999
20
-41.125
42
-0.41421356237309503
10
188.76249999999999
20
-40.625
0
LWPOLYLINE
5
195
100
AcDbEntity
8
0
100
AcDbPolyline
90
8
70
1
43
0.0
10
239.86250000000001
20
-40.625
10
226.86250000000001
20
-40.625
42
0.41421356237309503
10
226.36250000000001
20
-41.125
10
226.36250000000001
20
-54.125000000000007
42
0.41421356237309503
10
226.86250000000001
20
-54.625
10
239.86250000000001
20
-54.625
42
0.41421356237309503
10
240.36250000000001
20
-54.125000000000007
10
240.36250000000001
20
-41.125
42
0.41421356237309503
0
ARC
5
196
100
AcDbEntity
8
0
100
AcDbCircle
10
270.81875000000002
20
-54.125000000000007
30
0
40
0.49999999999999822
210
0
220
0
230
1
100
AcDbArc
50
-90
51
0
0
ARC
5
197
100
AcDbEntity
8
0
100
AcDbCircle
10
36.244250000000008
20
-74.175000000000011
30
0
40
0.49999999999999822
210
0
220
0
230
1
100
AcDbArc
50
-90
51
0
0
ARC
5
198
100
AcDbEntity
8
0
100
AcDbCircle
10
12.36825
20
-74.175000000000011
30
0
40
0.49999999999999822
210
0
220
0
230
1
100
AcDbArc
50
-90
51
0
0
LWPOLYLINE
5
199
100
AcDbEntity
8
0
100
AcDbPolyline
90
8
70
1
43
0.0
10
59.387500000000003
20
-73.174999999999997
10
59.387500000000003
20
-60.174999999999997
42
0.41421356237309503
10
58.88750000000001
20
-59.675000000000004
10
45.887500000000003
20
-59.675000000000004
42
0.41421356237309503
10
45.387500000000003
20
-60.174999999999997
10
45.387500000000003
20
-73.174999999999997
42
0.41421356237309503
10
45.887500000000003
20
-73.674999999999997
10
58.88750000000001
20
-73.674999999999997
42
0.41421356237309503
0
LINE
5
200
100
AcDbEntity
8
0
100
AcDbLine
10
4.90625
20
-60.174999999999997
30
0
11
4.90625
21
-73.174999999999997
31
0
0
LINE
5
201
100
AcDbEntity
8
0
100
AcDbLine
10
40.337500000000006
20
-60.174999999999997
30
0
11
40.337500000000006
21
-73.174999999999997
31
0
0
LINE
5
202
100
AcDbEntity
8
0
100
AcDbLine
10
273.38175000000001
20
-55.625
30
0
11
279.13175000000001
21
-55.625
31
0
0
LINE
5
203
100
AcDbEntity
8
0
100
AcDbLine
10
245.41250000000002
20
-41.125
30
0
11
245.41250000000002
21
-54.125000000000007
31
0
0
LINE
5
204
100
AcDbEntity
8
0
100
AcDbLine
10
257.81875000000002
20
-54.625
30
0
11
270.81875000000002
21
-54.625
31
0
0
LINE
5
205
100
AcDbEntity
8
0
100
AcDbLine
10
249.50575000000001
20
-55.625
30
0
11
255.25575000000003
21
-55.625
31
0
0
LINE
5
206
100
AcDbEntity
8
0
100
AcDbLine
10
14.93125
20
-73.674999999999997
30
0
11
27.931249999999999
21
-73.674999999999997
31
0
0
LINE
5
207
100
AcDbEntity
8
0
100
AcDbLine
10
245.91250000000002
20
-40.625
30
0
11
258.91250000000002
21
-40.625
31
0
0
LWPOLYLINE
5
208
100
AcDbEntity
8
0
100
AcDbPolyline
90
8
70
1
43
0.0
10
192.23750000000001
20
-73.674999999999997
10
179.23750000000001
20
-73.675000000000011
42
-0.41421356237309503
10
178.73750000000001
20
-73.174999999999997
10
178.73750000000001
20
-60.174999999999997
42
-0.41421356237309503
10
179.23750000000001
20
-59.675000000000004
10
192.23750000000001
20
-59.674999999999997
42
-0.41421356237309503
10
192.73750000000004
20
-60.174999999999997
10
192.73750000000004
20
-73.174999999999997
42
-0.41421356237309503
0
LWPOLYLINE
5
209
100
AcDbEntity
8
0
100
AcDbPolyline
90
8
70
1
43
0.0
10
83.487500000000011
20
-73.174999999999997
10
83.487499999999983
20
-60.174999999999997
42
-0.41421356237309503
10
83.987499999999997
20
-59.675000000000004
10
96.987500000000011
20
-59.674999999999997
42
-0.41421356237309503
10
97.487500000000011
20
-60.174999999999997
10
97.487500000000011
20
-73.174999999999997
42
-0.41421356237309503
10
96.987500000000011
20
-73.674999999999997
10
83.987499999999997
20
-73.675000000000011
42
-0.41421356237309503
0
LWPOLYLINE
5
210
100
AcDbEntity
8
0
100
AcDbPolyline
90
8
70
1
43
0.0
10
135.08750000000001
20
-59.674999999999997
42
-0.41421356237309503
10
135.58750000000001
20
-60.174999999999997
10
135.58750000000001
20
-73.174999999999997
42
-0.41421356237309503
10
135.08750000000001
20
-73.674999999999997
10
122.08750000000002
20
-73.675000000000011
42
-0.41421356237309503
10
121.58750000000001
20
-73.174999999999997
10
121.58750000000001
20
-60.174999999999997
42
-0.41421356237309503
10
122.08750000000002
20
-59.675000000000004
0
LWPOLYLINE
5
211
100
AcDbEntity
8
0
100
AcDbPolyline
90
8
70
1
43
0.0
10
140.63749999999999
20
-60.174999999999997
42
-0.41421356237309503
10
141.13749999999999
20
-59.675000000000004
10
154.13749999999999
20
-59.674999999999997
42
-0.41421356237309503
10
154.63749999999999
20
-60.174999999999997
10
154.63750000000002
20
-73.174999999999997
42
-0.41421356237309503
10
154.13749999999999
20
-73.674999999999997
10
141.13749999999999
20
-73.675000000000011
42
-0.41421356237309503
10
140.63749999999999
20
-73.174999999999997
0
ARC
5
212
100
AcDbEntity
8
0
100
AcDbCircle
10
273.38175000000001
20
-55.125
30
0
40
0.50000000000000711
210
0
220
0
230
1
100
AcDbArc
50
180
51
270
0
LWPOLYLINE
5
213
100
AcDbEntity
8
0
100
AcDbPolyline
90
8
70
1
43
0.0
10
173.68750000000003
20
-73.174999999999997
10
173.68750000000003
20
-60.174999999999997
42
0.41421356237309503
10
173.1875
20
-59.675000000000004
10
160.1875
20
-59.675000000000004
42
0.41421356237309503
10
159.6875
20
-60.174999999999997
10
159.6875
20
-73.174999999999997
42
0.41421356237309503
10
160.1875
20
-73.674999999999997
10
173.1875
20
-73.674999999999997
42
0.41421356237309503
0
LWPOLYLINE
5
214
100
AcDbEntity
8
0
100
AcDbPolyline
90
8
70
1
43
0.0
10
64.4375
20
-60.174999999999997
42
-0.41421356237309503
10
64.9375
20
-59.675000000000004
10
77.9375
20
-59.675000000000004
42
-0.41421356237309503
10
78.4375
20
-60.174999999999997
10
78.4375
20
-73.174999999999997
42
-0.41421356237309503
10
77.9375
20
-73.674999999999997
10
64.9375
20
-73.674999999999997
42
-0.41421356237309503
10
64.4375
20
-73.174999999999997
0
LWPOLYLINE
5
215
100
AcDbEntity
8
0
100
AcDbPolyline
90
8
70
1
43
0.0
10
116.03749999999999
20
-59.674999999999997
42
-0.41421356237309503
10
116.53750000000001
20
-60.174999999999997
10
116.53749999999999
20
-73.174999999999997
42
-0.41421356237309503
10
116.03749999999999
20
-73.674999999999997
10
103.03750000000001
20
-73.675000000000011
42
-0.41421356237309503
10
102.53749999999999
20
-73.174999999999997
10
102.53749999999999
20
-60.174999999999997
42
-0.41421356237309503
10
103.03750000000001
20
-59.675000000000004
0
LINE
5
216
100
AcDbEntity
8
0
100
AcDbLine
10
249.00575000000003
20
-54.625
30
0
11
249.00575000000003
21
-55.125
31
0
0
LINE
5
217
100
AcDbEntity
8
0
100
AcDbLine
10
6.6182499999999997
20
-74.674999999999997
30
0
11
12.36825
21
-74.674999999999997
31
0
0
ARC
5
218
100
AcDbEntity
8
0
100
AcDbCircle
10
6.6182499999999997
20
-74.175000000000011
30
0
40
0.50000000000000044
210
0
220
0
230
1
100
AcDbArc
50
180
51
270
0
ARC
5
219
100
AcDbEntity
8
0
100
AcDbCircle
10
255.25575000000003
20
-55.125
30
0
40
0.49999999999999822
210
0
220
0
230
1
100
AcDbArc
50
-90
51
0
0
ARC
5
220
100
AcDbEntity
8
0
100
AcDbCircle
10
30.494250000000001
20
-74.175000000000011
30
0
40
0.49999999999999822
210
0
220
0
230
1
100
AcDbArc
50
180
51
270
0
LINE
5
221
100
AcDbEntity
8
0
100
AcDbLine
10
29.994250000000005
20
-73.674999999999997
30
0
11
29.994250000000005
21
-74.175000000000011
31
0
0
LINE
5
222
100
AcDbEntity
8
0
100
AcDbLine
10
36.744250000000001
20
-73.674999999999997
30
0
11
36.744250000000001
21
-74.175000000000011
31
0
0
ARC
5
223
100
AcDbEntity
8
0
100
AcDbCircle
10
39.837499999999999
20
-73.174999999999997
30
0
40
0.49999999999999822
210
0
220
0
230
1
100
AcDbArc
50
-90
51
0
0
ARC
5
224
100
AcDbEntity
8
0
100
AcDbCircle
10
279.13175000000001
20
-55.125
30
0
40
0.49999999999999822
210
0
220
0
230
1
100
AcDbArc
50
-90
51
0
0
ARC
5
225
100
AcDbEntity
8
0
100
AcDbCircle
10
5.40625
20
-60.174999999999997
30
0
40
0.49999999999999822
210
0
220
-0
230
1
100
AcDbArc
50
90
51
180
0
ARC
5
226
100
AcDbEntity
8
0
100
AcDbCircle
10
245.91250000000002
20
-41.125
30
0
40
0.49999999999999822
210
0
220
-0
230
1
100
AcDbArc
50
90
51
180
0
ARC
5
227
100
AcDbEntity
8
0
100
AcDbCircle
10
245.91250000000002
20
-54.125000000000007
30
0
40
0.50000000000000711
210
0
220
0
230
1
100
AcDbArc
50
180
51
270
0
LINE
5
228
100
AcDbEntity
8
0
100
AcDbLine
10
30.494250000000001
20
-74.674999999999997
30
0
11
36.244250000000008
21
-74.674999999999997
31
0
0
LINE
5
229
100
AcDbEntity
8
0
100
AcDbLine
10
12.868250000000002
20
-73.674999999999997
30
0
11
12.868250000000002
21
-74.175000000000011
31
0
0
LINE
5
230
100
AcDbEntity
8
0
100
AcDbLine
10
6.1182499999999997
20
-73.674999999999997
30
0
11
6.1182499999999997
21
-74.175000000000011
31
0
0
LINE
5
231
100
AcDbEntity
8
0
100
AcDbLine
10
255.75575000000003
20
-54.625
30
0
11
255.75575000000003
21
-55.125
31
0
0
ARC
5
232
100
AcDbEntity
8
0
100
AcDbCircle
10
39.837499999999999
20
-60.174999999999997
30
0
40
0.50000000000000266
210
0
220
0
230
1
100
AcDbArc
50
0
51
90
0
ARC
5
233
100
AcDbEntity
8
0
100
AcDbCircle
10
249.50575000000001
20
-55.125
30
0
40
0.50000000000000711
210
0
220
0
230
1
100
AcDbArc
50
180
51
270
0
ARC
5
234
100
AcDbEntity
8
0
100
AcDbCircle
10
5.40625
20
-73.174999999999997
30
0
40
0.49999999999999989
210
0
220
0
230
1
100
AcDbArc
50
180
51
270
0
LINE
5
235
100
AcDbEntity
8
0
100
AcDbLine
10
266.55624999999998
20
-60.174999999999997
30
0
11
266.55624999999998
21
-73.174999999999997
31
0
0
LWPOLYLINE
5
236
100
AcDbEntity
8
0
100
AcDbPolyline
90
8
70
1
43
0.0
10
211.28749999999999
20
-73.674999999999997
10
198.28749999999999
20
-73.675000000000011
42
-0.41421356237309503
10
197.78750000000002
20
-73.174999999999997
10
197.78749999999999
20
-60.174999999999997
42
-0.41421356237309503
10
198.28749999999999
20
-59.675000000000004
10
211.28749999999999
20
-59.674999999999997
42
-0.41421356237309503
10
211.78750000000002
20
-60.174999999999997
10
211.78750000000002
20
-73.174999999999997
42
-0.41421356237309503
0
LWPOLYLINE
5
237
100
AcDbEntity
8
0
100
AcDbPolyline
90
8
70
1
43
0.0
10
236.93125000000006
20
-73.675000000000011
42
-0.41421356237309503
10
236.43125000000003
20
-73.174999999999997
10
236.43125000000003
20
-60.174999999999997
42
-0.41421356237309503
10
236.93125000000006
20
-59.675000000000004
10
237.93125000000003
20
-59.674999999999997
42
-0.41421356237309503
10
238.43125000000003
20
-60.174999999999997
10
238.43125000000003
20
-73.174999999999997
42
-0.41421356237309503
10
237.93125000000003
20
-73.674999999999997
0
LWPOLYLINE
5
238
100
AcDbEntity
8
0
100
AcDbPolyline
90
8
70
1
43
0.0
10
230.33750000000001
20
-59.675000000000004
10
217.33750000000001
20
-59.675000000000004
42
0.41421356237309503
10
216.83750000000001
20
-60.174999999999997
10
216.83750000000001
20
-73.174999999999997
42
0.41421356237309503
10
217.33750000000001
20
-73.674999999999997
10
230.33750000000001
20
-73.674999999999997
42
0.41421356237309503
10
230.83750000000003
20
-73.174999999999997
10
230.83750000000003
20
-60.174999999999997
42
0.41421356237309503
0
LWPOLYLINE
5
239
100
AcDbEntity
8
0
100
AcDbPolyline
90
14
70
1
43
0.0
10
274.86925000000002
20
-74.175000000000011
42
-0.41421356237309503
10
274.36925000000002
20
-74.674999999999997
10
268.61925000000002
20
-74.675000000000011
42
-0.41421356237309503
10
268.11925000000002
20
-74.175000000000011
10
268.11925000000002
20
-61.174999999999997
42
-0.41421356237309503
10
268.61925000000002
20
-60.674999999999997
10
269.22500000000002
20
-60.674999999999997
10
269.22500000000002
20
-60.174999999999997
42
-0.41421356237309503
10
269.72500000000002
20
-59.675000000000004
10
282.72500000000002
20
-59.674999999999997
42
-0.41421356237309503
10
283.22500000000002
20
-60.174999999999997
10
283.22500000000002
20
-73.174999999999997
42
-0.41421356237309503
10
282.72500000000002
20
-73.674999999999997
10
274.86925000000002
20
-73.674999999999997
0
LINE
5
240
100
AcDbEntity
8
0
100
AcDbLine
10
253.05625000000003
20
-73.674999999999997
30
0
11
266.05624999999998
21
-73.674999999999997
31
0
0
LINE
5
241
100
AcDbEntity
8
0
100
AcDbLine
10
243.03125
20
-60.174999999999997
30
0
11
243.03125
21
-73.174999999999997
31
0
0
ARC
5
242
100
AcDbEntity
8
0
100
AcDbCircle
10
250.49324999999999
20
-74.175000000000011
30
0
40
0.49999999999999822
210
0
220
0
230
1
100
AcDbArc
50
-90
51
0
0
ARC
5
243
100
AcDbEntity
8
0
100
AcDbCircle
10
266.05624999999998
20
-60.174999999999997
30
0
40
0.50000000000000711
210
0
220
0
230
1
100
AcDbArc
50
0
51
90
0
ARC
5
244
100
AcDbEntity
8
0
100
AcDbCircle
10
244.74324999999999
20
-74.175000000000011
30
0
40
0.50000000000000711
210
0
220
0
230
1
100
AcDbArc
50
180
51
270
0
LINE
5
245
100
AcDbEntity
8
0
100
AcDbLine
10
253.05625000000003
20
-59.675000000000004
30
0
11
266.05624999999998
21
-59.675000000000004
31
0
0
LINE
5
246
100
AcDbEntity
8
0
100
AcDbLine
10
250.99324999999999
20
-73.674999999999997
30
0
11
250.99324999999999
21
-74.175000000000011
31
0
0
LINE
5
247
100
AcDbEntity
8
0
100
AcDbLine
10
244.24324999999999
20
-73.674999999999997
30
0
11
244.24324999999999
21
-74.175000000000011
31
0
0
LINE
5
248
100
AcDbEntity
8
0
100
AcDbLine
10
243.53125000000003
20
-59.675000000000004
30
0
11
256.53125
21
-59.675000000000004
31
0
0
LWPOLYLINE
5
249
100
AcDbEntity
8
0
100
AcDbPolyline
90
9
70
1
43
0.0
10
21.287500000000009
20
-92.224999999999994
42
-0.41421356237309503
10
20.787500000000001
20
-92.725000000000009
10
5.40625
20
-92.725000000000009
42
-0.41421356237309503
10
4.90625
20
-92.224999999999994
10
4.9062500000000018
20
-79.224999999999994
42
-0.41421356237309503
10
5.4062499999999991
20
-78.724999999999994
10
20.000000298023224
20
-78.724999999999994
10
20.787500000000001
20
-78.724999999999994
42
-0.41421356237309503
10
21.287500000000001
20
-79.224999999999994
0
LINE
5
250
100
AcDbEntity
8
0
100
AcDbLine
10
55.412500000000009
20
-92.724999999999994
30
0
11
68.412499999999994
21
-92.724999999999994
31
0
0
LINE
5
251
100
AcDbEntity
8
0
100
AcDbLine
10
55.412500000000009
20
-78.724999999999994
30
0
11
68.412499999999994
21
-78.724999999999994
31
0
0
ARC
5
252
100
AcDbEntity
8
0
100
AcDbCircle
10
29.21875
20
-79.224999999999994
30
0
40
0.49999999999999822
210
0
220
-0
230
1
100
AcDbArc
50
90
51
180
0
ARC
5
253
100
AcDbEntity
8
0
100
AcDbCircle
10
29.21875
20
-92.224999999999994
30
0
40
0.49999999999999822
210
0
220
0
230
1
100
AcDbArc
50
180
51
270
0
LINE
5
254
100
AcDbEntity
8
0
100
AcDbLine
10
31.600000000000001
20
-78.724999999999994
30
0
11
44.600000000000001
21
-78.724999999999994
31
0
0
LINE
5
255
100
AcDbEntity
8
0
100
AcDbLine
10
68.912499999999994
20
-79.224999999999994
30
0
11
68.912499999999994
21
-92.224999999999994
31
0
0
ARC
5
256
100
AcDbEntity
8
0
100
AcDbCircle
10
243.53125000000003
20
-73.174999999999997
30
0
40
0.50000000000000711
210
0
220
0
230
1
100
AcDbArc
50
180
51
270
0
ARC
5
257
100
AcDbEntity
8
0
100
AcDbCircle
10
243.53125000000003
20
-60.174999999999997
30
0
40
0.49999999999999822
210
0
220
-0
230
1
100
AcDbArc
50
90
51
180
0
LINE
5
258
100
AcDbEntity
8
0
100
AcDbLine
10
244.74324999999999
20
-74.674999999999997
30
0
11
250.49324999999999
21
-74.674999999999997
31
0
0
ARC
5
259
100
AcDbEntity
8
0
100
AcDbCircle
10
44.600000000000001
20
-79.224999999999994
30
0
40
0.49999999999999822
210
0
220
0
230
1
100
AcDbArc
50
0
51
90
0
ARC
5
260
100
AcDbEntity
8
0
100
AcDbCircle
10
266.05624999999998
20
-73.174999999999997
30
0
40
0.49999999999999822
210
0
220
0
230
1
100
AcDbArc
50
-90
51
0
0
ARC
5
261
100
AcDbEntity
8
0
100
AcDbCircle
10
78.09375
20
-93.224999999999994
30
0
40
0.49999999999999822
210
0
220
0
230
1
100
AcDbArc
50
180
51
270
0
LINE
5
262
100
AcDbEntity
8
0
100
AcDbLine
10
31.600000000000001
20
-92.724999999999994
30
0
11
44.600000000000001
21
-92.724999999999994
31
0
0
ARC
5
263
100
AcDbEntity
8
0
100
AcDbCircle
10
44.600000000000001
20
-92.224999999999994
30
0
40
0.50000000000000711
210
0
220
0
230
1
100
AcDbArc
50
-90
51
0
0
ARC
5
264
100
AcDbEntity
8
0
100
AcDbCircle
10
53.031250000000007
20
-79.224999999999994
30
0
40
0.49999999999999822
210
0
220
-0
230
1
100
AcDbArc
50
90
51
180
0
LWPOLYLINE
5
265
100
AcDbEntity
8
0
100
AcDbPolyline
90
8
70
1
43
0.0
10
107.68174999999999
20
-79.72499999999998
42
-0.41421356237309503
10
108.18174999999999
20
-80.224999999999994
10
108.18174999999999
20
-93.224999999999994
42
-0.41421356237309503
10
107.68174999999999
20
-93.725000000000009
10
101.93174999999999
20
-93.725000000000009
42
-0.41421356237309503
10
101.43174999999999
20
-93.224999999999994
10
101.43174999999999
20
-80.224999999999994
42
-0.41421356237309503
10
101.93174999999999
20
-79.724999999999994
0
LINE
5
266
100
AcDbEntity
8
0
100
AcDbLine
10
45.099999999999994
20
-79.224999999999994
30
0
11
45.099999999999994
21
-92.224999999999994
31
0
0
LINE
5
267
100
AcDbEntity
8
0
100
AcDbLine
10
52.531250000000007
20
-79.224999999999994
30
0
11
52.531250000000007
21
-92.224999999999994
31
0
0
LINE
5
268
100
AcDbEntity
8
0
100
AcDbLine
10
53.031250000000007
20
-78.724999999999994
30
0
11
66.03125
21
-78.724999999999994
31
0
0
LINE
5
269
100
AcDbEntity
8
0
100
AcDbLine
10
53.031250000000007
20
-92.724999999999994
30
0
11
66.03125
21
-92.725000000000009
31
0
0
ARC
5
270
100
AcDbEntity
8
0
100
AcDbCircle
10
99.368750000000006
20
-92.224999999999994
30
0
40
0.50000000000000711
210
0
220
0
230
1
100
AcDbArc
50
-90
51
0
0
LINE
5
271
100
AcDbEntity
8
0
100
AcDbLine
10
29.21875
20
-78.724999999999994
30
0
11
42.21875
21
-78.724999999999994
31
0
0
LINE
5
272
100
AcDbEntity
8
0
100
AcDbLine
10
29.21875
20
-92.725000000000009
30
0
11
42.21875
21
-92.724999999999994
31
0
0
LINE
5
273
100
AcDbEntity
8
0
100
AcDbLine
10
178.09375
20
-93.725000000000009
30
0
11
183.84375000000003
21
-93.725000000000009
31
0
0
ARC
5
274
100
AcDbEntity
8
0
100
AcDbCircle
10
53.031250000000007
20
-92.224999999999994
30
0
40
0.49999999999999822
210
0
220
0
230
1
100
AcDbArc
50
180
51
270
0
ARC
5
275
100
AcDbEntity
8
0
100
AcDbCircle
10
68.412499999999994
20
-92.224999999999994
30
0
40
0.50000000000000711
210
0
220
0
230
1
100
AcDbArc
50
-90
51
0
0
ARC
5
276
100
AcDbEntity
8
0
100
AcDbCircle
10
86.36875000000002
20
-79.224999999999994
30
0
40
0.49999999999999822
210
0
220
-0
230
1
100
AcDbArc
50
90
51
180
0
ARC
5
277
100
AcDbEntity
8
0
100
AcDbCircle
10
183.84375000000003
20
-80.224999999999994
30
0
40
0.50000000000000711
210
0
220
0
230
1
100
AcDbArc
50
0
51
90
0
LINE
5
278
100
AcDbEntity
8
0
100
AcDbLine
10
89.099999999999994
20
-92.724999999999994
30
0
11
99.368750000000006
21
-92.725000000000009
31
0
0
LINE
5
279
100
AcDbEntity
8
0
100
AcDbLine
10
99.868750000000006
20
-79.224999999999994
30
0
11
99.868750000000006
21
-92.224999999999994
31
0
0
LINE
5
280
100
AcDbEntity
8
0
100
AcDbLine
10
28.71875
20
-79.224999999999994
30
0
11
28.71875
21
-92.224999999999994
31
0
0
ARC
5
281
100
AcDbEntity
8
0
100
AcDbCircle
10
173.36925000000002
20
-80.224999999999994
30
0
40
0.49999999999999822
210
0
220
-0
230
1
100
AcDbArc
50
90
51
180
0
LINE
5
282
100
AcDbEntity
8
0
100
AcDbLine
10
78.09375
20
-79.724999999999994
30
0
11
83.84375
21
-79.724999999999994
31
0
0
LINE
5
283
100
AcDbEntity
8
0
100
AcDbLine
10
184.34375000000003
20
-80.224999999999994
30
0
11
184.34375
21
-93.224999999999994
31
0
0
LINE
5
284
100
AcDbEntity
8
0
100
AcDbLine
10
178.09375
20
-79.724999999999994
30
0
11
183.84375000000003
21
-79.724999999999994
31
0
0
LINE
5
285
100
AcDbEntity
8
0
100
AcDbLine
10
77.555750000000018
20
-80.224999999999994
30
0
11
77.555750000000018
21
-93.224999999999994
31
0
0
ARC
5
286
100
AcDbEntity
8
0
100
AcDbCircle
10
183.84375000000003
20
-93.224999999999994
30
0
40
0.50000000000000711
210
0
220
0
230
1
100
AcDbArc
50
-90
51
0
0
LINE
5
287
100
AcDbEntity
8
0
100
AcDbLine
10
86.36875000000002
20
-78.724999999999994
30
0
11
99.368750000000006
21
-78.724999999999994
31
0
0
LINE
5
288
100
AcDbEntity
8
0
100
AcDbLine
10
77.59375
20
-80.224999999999994
30
0
11
77.59375
21
-93.224999999999994
31
0
0
ARC
5
289
100
AcDbEntity
8
0
100
AcDbCircle
10
99.368750000000006
20
-79.224999999999994
30
0
40
0.50000000000000711
210
0
220
0
230
1
100
AcDbArc
50
0
51
90
0
LINE
5
290
100
AcDbEntity
8
0
100
AcDbLine
10
78.055750000000018
20
-93.725000000000009
30
0
11
83.805750000000003
21
-93.725000000000009
31
0
0
ARC
5
291
100
AcDbEntity
8
0
100
AcDbCircle
10
78.09375
20
-80.224999999999994
30
0
40
0.49999999999999822
210
0
220
-0
230
1
100
AcDbArc
50
90
51
180
0
LINE
5
292
100
AcDbEntity
8
0
100
AcDbLine
10
78.055750000000018
20
-79.724999999999994
30
0
11
83.805750000000003
21
-79.724999999999994
31
0
0
LINE
5
293
100
AcDbEntity
8
0
100
AcDbLine
10
78.09375
20
-93.725000000000009
30
0
11
83.84375
21
-93.725000000000009
31
0
0
ARC
5
294
100
AcDbEntity
8
0
100
AcDbCircle
10
68.412499999999994
20
-79.224999999999994
30
0
40
0.49999999999999822
210
0
220
0
230
1
100
AcDbArc
50
0
51
90
0
ARC
5
295
100
AcDbEntity
8
0
100
AcDbCircle
10
173.36925000000002
20
-93.224999999999994
30
0
40
0.50000000000000711
210
0
220
0
230
1
100
AcDbArc
50
180
51
270
0
LINE
5
296
100
AcDbEntity
8
0
100
AcDbLine
10
85.868750000000006
20
-79.224999999999994
30
0
11
85.868750000000006
21
-79.724999999999994
31
0
0
LINE
5
297
100
AcDbEntity
8
0
100
AcDbLine
10
5.40625
20
-73.674999999999997
30
0
11
6.1182499999999997
21
-73.674999999999997
31
0
0
LINE
5
298
100
AcDbEntity
8
0
100
AcDbLine
10
12.868250000000002
20
-73.674999999999997
30
0
11
18.40625
21
-73.674999999999997
31
0
0
LINE
5
299
100
AcDbEntity
8
0
100
AcDbLine
10
26.837499999999999
20
-73.674999999999997
30
0
11
29.994250000000005
21
-73.674999999999997
31
0
0
LINE
5
300
100
AcDbEntity
8
0
100
AcDbLine
10
36.744250000000001
20
-73.674999999999997
30
0
11
39.837499999999999
21
-73.674999999999997
31
0
0
LINE
5
301
100
AcDbEntity
8
0
100
AcDbLine
10
39.837499999999999
20
-59.675000000000004
30
0
11
5.40625
21
-59.675000000000004
31
0
0
LINE
5
302
100
AcDbEntity
8
0
100
AcDbLine
10
278.46249999999998
20
-22.074999999999999
30
0
11
278.46249999999998
21
-22.787000000000003
31
0
0
LINE
5
303
100
AcDbEntity
8
0
100
AcDbLine
10
280.34375
20
-45.099999999999994
30
0
11
279.63175000000001
21
-45.099999999999994
31
0
0
LINE
5
304
100
AcDbEntity
8
0
100
AcDbLine
10
279.63175000000001
20
-45.099999999999994
30
0
11
279.63175000000001
21
-46.754275153679146
31
0
0
LINE
5
305
100
AcDbEntity
8
0
100
AcDbLine
10
279.63175000000001
20
-53.321724846320834
30
0
11
279.63175000000001
21
-55.125
31
0
0
LINE
5
306
100
AcDbEntity
8
0
100
AcDbLine
10
272.88175000000001
20
-53.412999999999997
30
0
11
272.88175000000001
21
-55.125
31
0
0
LINE
5
307
100
AcDbEntity
8
0
100
AcDbLine
10
271.31875000000002
20
-53.412999999999997
30
0
11
271.31875000000002
21
-54.125000000000007
31
0
0
LINE
5
308
100
AcDbEntity
8
0
100
AcDbLine
10
245.91250000000002
20
-54.625
30
0
11
249.00575000000003
21
-54.625
31
0
0
LINE
5
309
100
AcDbEntity
8
0
100
AcDbLine
10
255.75575000000003
20
-54.625
30
0
11
258.91250000000002
21
-54.625
31
0
0
LINE
5
310
100
AcDbEntity
8
0
100
AcDbLine
10
195.90625000000003
20
-92.724999999999994
30
0
11
196.65000000000003
21
-92.724999999999994
31
0
0
LINE
5
311
100
AcDbEntity
8
0
100
AcDbLine
10
203.40000000000003
20
-92.725000000000009
30
0
11
208.90625
21
-92.725000000000009
31
0
0
LINE
5
312
100
AcDbEntity
8
0
100
AcDbLine
10
243.53125000000003
20
-73.674999999999997
30
0
11
244.24324999999999
21
-73.674999999999997
31
0
0
LINE
5
313
100
AcDbEntity
8
0
100
AcDbLine
10
250.99324999999999
20
-73.674999999999997
30
0
11
256.53125
21
-73.674999999999997
31
0
0
CIRCLE
5
314
100
AcDbEntity
8
0
100
AcDbCircle
10
25.199999999999999
20
-27.899999999999999
30
0
40
0.99999999999999822
210
0
220
0
230
1
0
LINE
5
315
100
AcDbEntity
8
0
100
AcDbLine
10
2.3999999999999999
20
-56.5
30
0
11
2.3999999999999999
21
-58.500000000000007
31
0
0
LINE
5
316
100
AcDbEntity
8
0
100
AcDbLine
10
2.3999999999999999
20
-56.5
30
0
11
2.3999999999999999
21
-54.499998781830072
31
0
0
LINE
5
317
100
AcDbEntity
8
0
100
AcDbLine
10
0
20
0
30
0
11
0
21
-54.499998781830072
31
0
0
LINE
5
318
100
AcDbEntity
8
0
100
AcDbLine
10
0
20
-58.500000000000007
30
0
11
0
21
-95.25
31
0
0
LINE
5
319
100
AcDbEntity
8
0
100
AcDbLine
10
2.3999999999999999
20
-57.5
30
0
11
0
21
-57.5
31
0
0
LINE
5
320
100
AcDbEntity
8
0
100
AcDbLine
10
2.3999999999999999
20
-55.499999390915036
30
0
11
0
21
-55.499999390915036
31
0
0
LINE
5
321
100
AcDbEntity
8
0
100
AcDbLine
10
0
20
-54.499998781830072
30
0
11
0
21
-55.499999390915036
31
0
0
LINE
5
322
100
AcDbEntity
8
0
100
AcDbLine
10
0
20
-57.5
30
0
11
0
21
-58.500000000000007
31
0
0
ARC
5
323
100
AcDbEntity
8
0
100
AcDbCircle
10
2.3999999999999999
20
-56.5
30
0
40
0.99999999999999645
210
0
220
0
230
1
100
AcDbArc
50
-90
51
90
0
LINE
5
324
100
AcDbEntity
8
0
100
AcDbLine
10
283.35000000000002
20
-56.5
30
0
11
283.35000000000002
21
-57.500000000000014
31
0
0
LINE
5
325
100
AcDbEntity
8
0
100
AcDbLine
10
283.35000000000002
20
-56.5
30
0
11
283.35000000000002
21
-55.499998759478331
31
0
0
LINE
5
326
100
AcDbEntity
8
0
100
AcDbLine
10
283.35000000000002
20
-55.499998759478331
30
0
11
285.75
21
-55.499998759478331
31
0
0
LINE
5
327
100
AcDbEntity
8
0
100
AcDbLine
10
283.35000000000002
20
-57.500000000000014
30
0
11
285.75
21
-57.500000000000014
31
0
0
ARC
5
328
100
AcDbEntity
8
0
100
AcDbCircle
10
283.35000000000002
20
-56.5
30
0
40
1.0000012405216729
210
0
220
-0
230
1
100
AcDbArc
50
90
51
270
0
LINE
5
329
100
AcDbEntity
8
0
100
AcDbLine
10
285.75
20
0
30
0
11
285.75
21
-55.499998759478331
31
0
0
LINE
5
330
100
AcDbEntity
8
0
100
AcDbLine
10
285.75
20
-57.500000000000014
30
0
11
285.75
21
-95.25
31
0
0
LINE
5
331
100
AcDbEntity
8
0
100
AcDbLine
10
260.80000000000001
20
-27.899999999999999
30
0
11
260.80000000000001
21
-26.899999398738146
31
0
0
LWPOLYLINE
5
332
100
AcDbEntity
8
0
100
AcDbPolyline
90
6
70
1
43
0.0
10
261.80000000000001
20
-26.899999398738146
10
260.80000000000001
20
-26.899999398738146
10
259.80000000000001
20
-26.899999398738146
42
0.99999999999999989
10
259.80000000000001
20
-28.900000000000002
10
260.80000000000001
20
-28.900000000000002
10
261.80000000000001
20
-28.900000000000002
42
0.99999999999999989
0
LINE
5
333
100
AcDbEntity
8
0
100
AcDbLine
10
260.80000000000001
20
-28.900000000000002
30
0
11
260.86135372094441
21
-28.898116085896962
31
0
0
LINE
5
334
100
AcDbEntity
8
0
100
AcDbLine
10
191.50000000000003
20
-86.200000000000017
30
0
11
189.5
21
-86.200000000000017
31
0
0
LINE
5
335
100
AcDbEntity
8
0
100
AcDbLine
10
189.5
20
-84.200000000000017
30
0
11
191.50000000000003
21
-84.200000000000017
31
0
0
LINE
5
336
100
AcDbEntity
8
0
100
AcDbLine
10
191.50000000000003
20
-86.200000000000017
30
0
11
189.5
21
-84.200000000000017
31
0
0
LINE
5
337
100
AcDbEntity
8
0
100
AcDbLine
10
189.5
20
-86.200000000000017
30
0
11
191.50000000000003
21
-84.200000000000017
31
0
0
ARC
5
338
100
AcDbEntity
8
0
100
AcDbCircle
10
191.5
20
-85.200000000000017
30
0
40
0.99999999999999645
210
0
220
0
230
1
100
AcDbArc
50
-89.99999999999838
51
89.99999999999838
0
ARC
5
339
100
AcDbEntity
8
0
100
AcDbCircle
10
189.5
20
-85.200000000000017
30
0
40
0.99999999999999645
210
0
220
-0
230
1
100
AcDbArc
50
90
51
270
0
LINE
5
340
100
AcDbEntity
8
0
100
AcDbLine
10
129.19999999999999
20
-48.000000000000007
30
0
11
127.2
21
-48.000000000000007
31
0
0
LINE
5
341
100
AcDbEntity
8
0
100
AcDbLine
10
127.2
20
-46
30
0
11
129.19999999999999
21
-46
31
0
0
LINE
5
342
100
AcDbEntity
8
0
100
AcDbLine
10
129.19999999999999
20
-48.000000000000007
30
0
11
127.2
21
-46
31
0
0
LINE
5
343
100
AcDbEntity
8
0
100
AcDbLine
10
127.2
20
-48.000000000000007
30
0
11
129.19999999999999
21
-46
31
0
0
ARC
5
344
100
AcDbEntity
8
0
100
AcDbCircle
10
129.20000000000002
20
-47
30
0
40
1.0000000000000053
210
0
220
0
230
1
100
AcDbArc
50
-90.000000000001634
51
90.000000000001634
0
ARC
5
345
100
AcDbEntity
8
0
100
AcDbCircle
10
127.59999599010884
20
-47
30
0
40
1.0770314721971421
210
0
220
0
230
1
100
AcDbArc
50
111.80121142587099
51
248.19878857412914
0
LINE
5
346
100
AcDbEntity
8
0
100
AcDbLine
10
279.84374200589957
20
-29.036999999986893
30
0
11
279.8437391377563
21
-31.099999304845728
31
0
0
LINE
5
347
100
AcDbEntity
8
0
100
AcDbLine
10
208.90625
20
-92.725000000000009
30
0
11
264.96249999999998
21
-92.724999999999994
31
0
0
LINE
5
348
100
AcDbEntity
8
0
100
AcDbLine
10
264.96249999999998
20
-78.724999999999994
30
0
11
208.90625
21
-78.724999999999994
31
0
0
ENDSEC
0
SECTION
2
OBJECTS
0
DICTIONARY
5
C
100
AcDbDictionary
3
ACAD_GROUP
350
D
3
ACAD_MLINESTYLE
350
17
0
DICTIONARY
5
D
100
AcDbDictionary
0
DICTIONARY
5
1A
330
C
100
AcDbDictionary
0
DICTIONARY
5
17
100
AcDbDictionary
0
ENDSEC
0
EOF
